<?xml version="1.0" encoding="UTF-8"?>
<svg id="_370wX342h" data-name="370wX342h" xmlns="http://www.w3.org/2000/svg" viewBox="0 0 370 342">
  <defs>
    <style>
      .cls-1 {
        fill: #fbb042;
      }
    </style>
  </defs>
  <rect x="0" width="370" height="342"/>
  <rect x="2.64" y="18.81" width="350.57" height="300.05"/>
  <g>
    <path class="cls-1" d="m194.14,127.52c25.76,1.21-28.18,41.35-44.28,38.77,1.53-2,8.4-15.51,7.07-26.56-.75-6.27-3.9-10.45-11.42-13.06-35.75-11.51-88.25,50.27-54.03,64.96,11.41,3.4,19.04-5.27,24.77-12.38-26.12-11.13,11.95-16.21,17.38,12.45,2.91,17.29-4.74-17.24-12.65-6.74,0,0-.05.05-.15.15-5.5,5.59-9.73,12.33-12.28,19.74-36.44,94.27-31.85,3.11-39.09,6.24.79-9.71,19.65-11.29,22.43-3.32,7.22.94,11.72-9.51,11.73-11.99-43.54,3.86-62.52-48.09-12.43-83.93,30.3-23.9,129.08-13.43,76.83,32.49,2.9,12.52,29.52-14.05,26.13-16.82Z"/>
    <g>
      <path class="cls-1" d="m228.36,297.78l-.6-.29.36.56c.5.79.57,1.32.21,1.56-1.51,1.01-8.69-1.97-10.99-4.95,10.12-3.16,12.83-7.29,11.97-10.12-1.13-3.72-8.3-5.95-17.9-3.08-.33.06-.66.13-1,.2-4.71.96-10.04,2.04-13.77-1.24-.6-.64-.86-1.33-.77-2.04.13-1.01.95-2.07,2.27-2.92,4.08-3.46,9.78-2.89,11.19-1.28.74.84.17,1.68-.44,2.23l-.38.35.52-.02h.07c1.67.02,2.88-.4,3.47-1.22.5-.7.55-1.67.12-2.88-3.36-8.01-12.53-5.56-19.23-3.77-3.64.97-6.79,1.82-8.06.82-.43-.34-.64-.88-.63-1.65.23-1.49,3.56-3.15,6.5-4.62,3.11-1.55,5.01-2.55,4.91-3.5-.05-.45-.53-.79-1.51-1.05l-.04-.08-.16.07c-.56.25-13.7,5.92-19.23,4.55.29-.23,1.07-.67,1.82-1.09,2.82-1.59,7.55-4.25,7.85-6.87.09-.79-.21-1.51-.89-2.14-.63-.78-1.97-1.69-6.75-1.84.92-.48,2.6-1.15,4.63-1.95,6.25-2.47,15.68-6.2,15.61-9.92-.03-1.63-1.76-3.03-5.3-4.28-1.3-.47-3.41-.53-4.93-.14-2.83.73-3.13,2.84-3.44,5.07-.55,3.92-1.23,8.8-15.73,9.4-4.55.28-8.55.26-11.41-.04,8.31-.45,13.38-4.13,14.78-7.83.73-1.92.38-3.68-.94-4.82-2.6-2.24-7.98-1.57-14.65,1.73.11-.07.22-.14.33-.21,2.72-1.79,4.62-3.13,4.36-4.1-.13-.5-.78-.77-2.03-.86h-.09s-.06.06-.06.06c-2.4,2.6-13.86,6.78-17.26,4.47-1.19-.81-1.24-2.36-.16-4.59.56-.92,1.96-1.84,3.43-2.81,2.34-1.54,4.97-3.28,4.69-5.46.92.23,1.84-.18,2.19-.8.34-.61.1-1.3-.67-1.86-5.07-2.36-10.75-1.01-16.24.31-4.3,1.03-8.75,2.09-12.73,1.25,3.26-3.69,7.54-5.2,10.69-6.32,2.34-.83,4.04-1.43,4.16-2.58.17-1.58-2.64-3.89-11.1-9.12.14-.3.3-.77.04-.97-.23-.18-.72-.54-5.83,4.42-1.42,1.4-5.44,6.07-6.05,7.3-1.12,1.94-4.78,1.17-4.81,1.16l-1.46-.31,1.33.67c2.9,1.45,5.16,1.86,6.91,1.26,2.17-.75,3.21-2.91,4.21-5.01.99-2.08,1.93-4.04,3.86-4.49,2.11-.5,5.27.91,9.65,4.3-6.69,1.49-12.78,6.05-13.84,9.23-.31.95-.19,1.77.35,2.38,1.28,1.44,4.79,1.66,10.18.65-2.22,1.52-2.71,3.04-2.7,4.1.02,1.42.95,2.76,2.5,3.6,1.66.9,4.28,1.31,6.78-.12-.27,2.25.41,4.09,2,5.34,2.45,1.94,6.65,2.19,9.93,1.38-12.13,6.88-16.4,9.38-25.29,20.48-1.35-4.7-4.53-5.71-6.89-5.13-2.08.51-3.41,2.18-3.03,3.8l.08.36.24-.28c.27-.31.5-.46.64-.41.55.18.77,2.5,1.01,4.97.54,5.64,1.35,14.16,7.01,14.61,4.04-.05,5.38-4.61,7.08-10.38,2.29-7.78,5.15-17.46,15.67-21.92.75-.23,2.34-.87,4.35-1.68-.05.03-.1.06-.15.09-.42.3-.61.77-.49,1.33,1.35,3.53,4.18,5.57,8.65,6.26.22.03,1.94.16,2.03.17,3.07.13,6.63-.18,9.5-.44.57-.05,1.11-.1,1.63-.14-.25.13-.54.27-.84.41-2.95,1.44-5.58,2.82-5.41,3.94.08.53.75.89,2.04,1.1h.1s.07-.05.07-.05c3.74-3.79,9.36-5.14,14.64-3.53.38.14.4.32.41.37.13.86-2.3,2.74-4.45,4.41-2.84,2.19-4.54,3.59-4.31,4.48.17.65.6,1.17,1.29,1.56,1.9,1.07,5.56.95,10.08-.33-2.2,3.62-2.84,5.84-2.02,6.95,1.16,1.57,4.94.55,9.32-.63,4.54-1.23,9.63-2.6,12-.97-3.53-.53-7.42.83-9.29,3.3-1.12,1.48-2.04,3.99-.11,7.54.15.28.96,1.26,1.22,1.47,4.99,4.1,10.95,2.82,16.71,1.58,5.18-1.11,10.54-2.26,15.3.39-5.97,9.89-10.29,7.77-14.87,5.52-2.91-1.42-5.91-2.9-9.46-1.41-.54.23-.86.79-.75,1.35.57,2.94,4.44,3.64,8.18,4.31,2.55.46,4.95.89,6.03,1.97,4.74,6.42,8.58,7.5,10.63,7.5.57,0,1-.08,1.28-.16,1.38-.38,2.31-1.39,2.42-2.62.12-1.33-.75-2.59-2.32-3.36Zm-42.09-54.4c.21-1.26,1.15-5.81,3.89-5.81.09,0,.18,0,.27.01,2.2.41,2.71.96,2.75,1.36.1,1.01-2.22,2.5-6.91,4.44Zm-40.11-17.95c-2.05,2-5.54,4.29-8,5.69-6.84,1.12-8.19.26-8.45-.16-.15-.25-.08-.58.22-.98,1.5-2.02,7.84-4.84,13.35-4.84,1,0,1.97.09,2.87.3Zm22.47,14.41c.24.37.12,1.47-3.32,4.74-4.37,3.14-10.23,3.48-14.58.84-.22-.13-.47-.2-.72-.2-.14,0-.27.02-.4.06,6.3-2.54,17.91-7.2,19.03-5.44Zm43.51,52.04c-1.36-.24-2.87-.54-4.26-1.3-.56-.3-1.22-1.2-1.66-1.41,1.41.24,3.67,1.48,5.27,2.35.23.13.45.25.66.36Z"/>
      <path class="cls-1" d="m199.76,258s.08,0,.12,0c.48-.04.88-.31,1.13-.76,1.26-1.3,3-1.06,4.53-.84.76.11,1.48.21,2.1.13.66-.09.91-.14.9-.37-.07-1.23-.49-2.05-1.24-2.46-2.03-1.1-5.93,1.16-8.03,2.38-.5.29-.89.52-1.06.58-.09.03-.15.1-.17.18-.02.09,0,.18.05.25.43.56,1.07.91,1.67.91Z"/>
    </g>
  </g>
  <path class="cls-1" d="m312.99,247.14c-18.88-4.86-73.04-42.01-114.88-70.22,138.83-43.89,85.12-148.58-54.26-137.18,0,0-101.42,45.34-101.42,45.34,5.27,64.38,4.94,204.52-15.72,211.55-26.12,8.88,99.76-3.22,114.89-.85l1.33-7.33c-14.05-2.55-83.41-3-104.41-1.82,17.93-2.3,18.19-151.34,12.85-193.94l64.92-1.61c118.03-4.57,135.52,59.76,26.71,91.79l6.45,7.03c41.42,43.73,98.79,86.81,105.07,91.77,5.85-27.67,65.4-24.53,91.44-27.7l-32.97-6.83Zm-86.87-123.48c-1.72-42.95-106.76-45.27-156.13-40.72C195.43-2.96,368.02,100.33,202.15,165.73c17.91-12.75,26.51-27.3,23.97-42.07Zm-66.04,63.93c43.91-19.32,61.71,41.41,136.94,62.78-13.47,1.66-36.51,6.12-46.14,16.78-13.96-10.9-59.96-47.46-90.8-79.56Z"/>
</svg>