<svg width="48" height="47" viewBox="0 0 48 47" fill="none" xmlns="http://www.w3.org/2000/svg">
<rect x="1.6348" y="0.903846" width="45.1923" height="45.1923" rx="8.13462" fill="#C1BAFF"/>
<path d="M35.9807 10.4668C31.2807 18.6918 22.2242 23.4099 12.788 22.5603L7.05762 22.036M12.4807 36.823C17.1807 28.598 26.2372 23.8799 35.6734 24.7295L41.4038 25.2537" stroke="#1A00FF" stroke-width="2.71154" stroke-miterlimit="10" stroke-linecap="round" stroke-linejoin="round"/>
<path d="M24.2307 41.5767C34.2146 41.5767 42.3077 33.4837 42.3077 23.4998C42.3077 13.5159 34.2146 5.42285 24.2307 5.42285C14.2468 5.42285 6.15381 13.5159 6.15381 23.4998C6.15381 33.4837 14.2468 41.5767 24.2307 41.5767Z" stroke="#1A00FF" stroke-width="2.71154" stroke-miterlimit="10" stroke-linecap="round" stroke-linejoin="round"/>
<path d="M16.3311 7.23096L22.0795 14.3713C25.9299 19.1436 28.6595 24.6933 30.1057 30.6406L32.293 39.661" stroke="#1A00FF" stroke-width="2.71154" stroke-miterlimit="10" stroke-linecap="round" stroke-linejoin="round"/>
<rect x="1.6348" y="0.903846" width="45.1923" height="45.1923" rx="8.13462" stroke="#1A00FF" stroke-width="1.80769"/>
</svg>
