<svg width="55" height="55" viewBox="0 0 55 55" fill="none" xmlns="http://www.w3.org/2000/svg">
<rect x="4.82669" y="4.82669" width="44.4066" height="44.4066" rx="6.75752" fill="#C1BAFF"/>
<path d="M27.03 38.8077C25.6785 38.8077 24.52 37.6493 24.52 36.2978V17.7629C24.52 16.4114 25.6785 15.2529 27.03 15.2529C28.3815 15.2529 29.5399 16.4114 29.5399 17.7629V36.4909C29.5399 37.8424 28.3815 38.8077 27.03 38.8077Z" stroke="#1A00FF" stroke-width="2.89608" stroke-miterlimit="10"/>
<path d="M16.7969 21.0449C17.3761 19.8865 18.9207 19.5004 20.2722 20.0796L36.4903 29.347C37.6487 30.1193 38.0349 31.6639 37.4556 32.8223C36.6834 33.9808 35.1388 34.3669 33.9803 33.7877L17.7623 24.5202C16.4108 23.941 16.0246 22.3965 16.7969 21.0449Z" stroke="#1A00FF" stroke-width="2.89608" stroke-miterlimit="10"/>
<path d="M16.797 33.0153C16.0247 31.8569 16.6039 30.3123 17.7623 29.54L33.9804 20.2725C35.1388 19.5003 36.6834 20.0795 37.4557 21.2379C38.228 22.3963 37.6487 23.9409 36.4903 24.7132L20.2723 33.9807C18.9208 34.5599 17.3762 34.1737 16.797 33.0153Z" stroke="#1A00FF" stroke-width="2.89608" stroke-miterlimit="10"/>
<path d="M27.0299 46.3371C37.6932 46.3371 46.3371 37.6932 46.3371 27.0299C46.3371 16.3665 37.6932 7.72266 27.0299 7.72266C16.3665 7.72266 7.72266 16.3665 7.72266 27.0299C7.72266 37.6932 16.3665 46.3371 27.0299 46.3371Z" stroke="#1A00FF" stroke-width="2.89608" stroke-miterlimit="10"/>
<rect x="4.82669" y="4.82669" width="44.4066" height="44.4066" rx="6.75752" stroke="#1A00FF" stroke-width="1.93072"/>
</svg>
