<svg width="43" height="43" viewBox="0 0 43 43" fill="none" xmlns="http://www.w3.org/2000/svg">
<g clip-path="url(#clip0_64_50)">
<rect x="0.826923" y="0.826923" width="40.5448" height="41.3462" rx="7.44231" fill="#C1BAFF"/>
<path d="M18.6189 14.8845H23.5804M12.4335 38.0383H29.7658C34.3304 38.0383 36.1496 35.2433 36.3646 31.8364L37.2246 18.1757C37.2782 17.3286 37.1575 16.4796 36.87 15.681C36.5825 14.8825 36.1342 14.1514 35.553 13.5329C34.9717 12.9144 34.2698 12.4218 33.4906 12.0853C32.7114 11.7489 31.8714 11.5758 31.0227 11.5768C30.0139 11.5768 29.0877 10.998 28.6246 10.1049L27.4339 7.70681C26.6731 6.20181 24.6885 4.96143 23.0015 4.96143H19.2142C17.5108 4.96143 15.5262 6.20181 14.7654 7.70681L13.5746 10.1049C13.1115 10.998 12.1854 11.5768 11.1765 11.5768C7.5877 11.5768 4.74309 14.6033 4.97462 18.1757L5.83462 31.8364C6.03309 35.2433 7.86885 38.0383 12.4335 38.0383Z" stroke="#1A00FF" stroke-width="2.48077" stroke-linecap="round" stroke-linejoin="round"/>
<path d="M21.0996 31.4229C24.06 31.4229 26.4746 29.0082 26.4746 26.0479C26.4746 23.0875 24.06 20.6729 21.0996 20.6729C18.1392 20.6729 15.7246 23.0875 15.7246 26.0479C15.7246 29.0082 18.1392 31.4229 21.0996 31.4229Z" stroke="#1A00FF" stroke-width="2.48077" stroke-linecap="round" stroke-linejoin="round"/>
<rect x="0.826923" y="0.826923" width="40.5448" height="41.3462" rx="7.44231" stroke="#1A00FF" stroke-width="1.65385"/>
</g>
<defs>
<clipPath id="clip0_64_50">
<rect width="42.1987" height="43" fill="white"/>
</clipPath>
</defs>
</svg>
