<svg width="47" height="47" viewBox="0 0 47 47" fill="none" xmlns="http://www.w3.org/2000/svg">
<rect x="0.903846" y="0.903846" width="45.1923" height="45.1923" rx="8.13462" fill="#C1BAFF"/>
<path d="M36.1165 42.558C34.3083 43.1236 32.1713 43.3846 29.6645 43.3846H17.3358C14.829 43.3846 12.692 43.1236 10.8838 42.558C11.3358 36.9022 16.8221 32.4429 23.5001 32.4429C30.1782 32.4429 35.6644 36.9022 36.1165 42.558Z" stroke="#1A00FF" stroke-width="2.44038" stroke-linecap="round" stroke-linejoin="round"/>
<path d="M31.1839 20.3456C31.1839 24.6527 27.8963 28.1549 23.8278 28.1549C19.7593 28.1549 16.4717 24.6527 16.4717 20.3456C16.4717 16.0386 19.7593 12.5581 23.8278 12.5581C27.8963 12.5581 31.1839 16.0386 31.1839 20.3456Z" stroke="#1A00FF" stroke-width="2.44038" stroke-linecap="round" stroke-linejoin="round"/>
<rect x="0.903846" y="0.903846" width="45.1923" height="45.1923" rx="8.13462" stroke="#1A00FF" stroke-width="1.80769"/>
</svg>
