<svg width="55" height="55" viewBox="0 0 55 55" fill="none" xmlns="http://www.w3.org/2000/svg">
<rect x="4.82669" y="4.82669" width="44.4066" height="44.4112" rx="6.75752" fill="#C1BAFF"/>
<path d="M46.3371 25.0991V21.2377C46.3371 11.5841 42.4756 7.72266 32.822 7.72266H21.2377C11.5841 7.72266 7.72266 11.5841 7.72266 21.2377V32.822C7.72266 42.4756 11.5841 46.3371 21.2377 46.3371H23.1684M7.78058 20.2723H46.3371M7.78058 33.7874H27.0299M20.2916 46.3178V7.74196M33.8067 27.0106V7.74196" stroke="#1A00FF" stroke-width="2.89608" stroke-linecap="round" stroke-linejoin="round"/>
<path d="M40.0236 32.1853L32.0111 40.1978C31.7022 40.5067 31.4125 41.1052 31.3353 41.5299L30.8913 44.5998C30.7368 45.7003 31.5091 46.4919 32.6096 46.3181L35.6794 45.8741C36.1042 45.8161 36.7027 45.5072 37.0116 45.1983L45.0241 37.1858C46.3949 35.815 47.0514 34.1932 45.0241 32.166C43.0162 30.158 41.4137 30.7951 40.0236 32.1853Z" stroke="#1A00FF" stroke-width="2.89608" stroke-miterlimit="10" stroke-linecap="round" stroke-linejoin="round"/>
<path d="M38.8848 33.3242C39.2219 34.5206 39.8605 35.6105 40.7394 36.4894C41.6184 37.3684 42.7082 38.007 43.9046 38.3441" stroke="#1A00FF" stroke-width="2.89608" stroke-miterlimit="10" stroke-linecap="round" stroke-linejoin="round"/>
<rect x="4.82669" y="4.82669" width="44.4066" height="44.4112" rx="6.75752" stroke="#1A00FF" stroke-width="1.93072"/>
</svg>
