<svg width="47" height="47" viewBox="0 0 47 47" fill="none" xmlns="http://www.w3.org/2000/svg">
<rect x="0.903846" y="0.903846" width="45.1923" height="45.1923" rx="8.13462" fill="#C1BAFF"/>
<path d="M10.8459 19.8844H14.4613C18.0767 19.8844 19.8844 18.0767 19.8844 14.4613V10.8459C19.8844 7.23054 18.0767 5.42285 14.4613 5.42285H10.8459C7.23054 5.42285 5.42285 7.23054 5.42285 10.8459V14.4613C5.42285 18.0767 7.23054 19.8844 10.8459 19.8844ZM32.5382 19.8844H36.1536C39.769 19.8844 41.5767 18.0767 41.5767 14.4613V10.8459C41.5767 7.23054 39.769 5.42285 36.1536 5.42285H32.5382C28.9229 5.42285 27.1152 7.23054 27.1152 10.8459V14.4613C27.1152 18.0767 28.9229 19.8844 32.5382 19.8844ZM32.5382 41.5767H36.1536C39.769 41.5767 41.5767 39.769 41.5767 36.1536V32.5382C41.5767 28.9229 39.769 27.1152 36.1536 27.1152H32.5382C28.9229 27.1152 27.1152 28.9229 27.1152 32.5382V36.1536C27.1152 39.769 28.9229 41.5767 32.5382 41.5767ZM10.8459 41.5767H14.4613C18.0767 41.5767 19.8844 39.769 19.8844 36.1536V32.5382C19.8844 28.9229 18.0767 27.1152 14.4613 27.1152H10.8459C7.23054 27.1152 5.42285 28.9229 5.42285 32.5382V36.1536C5.42285 39.769 7.23054 41.5767 10.8459 41.5767Z" stroke="#1A00FF" stroke-width="2.71154" stroke-miterlimit="10" stroke-linecap="round" stroke-linejoin="round"/>
<rect x="0.903846" y="0.903846" width="45.1923" height="45.1923" rx="8.13462" stroke="#1A00FF" stroke-width="1.80769"/>
</svg>
