<svg width="39" height="47" viewBox="0 0 39 47" fill="none" xmlns="http://www.w3.org/2000/svg">
<g clip-path="url(#clip0_64_44)">
<rect x="0.96536" y="0.96536" width="37.0455" height="44.4066" rx="6.75752" fill="#C1BAFF"/>
<path d="M12.0869 42.4757C4.01652 42.4757 2.39471 37.591 5.02049 31.6444L13.2261 13.0129H12.6468C12.0446 13.0145 11.448 12.8973 10.891 12.6681C10.3341 12.4389 9.82778 12.1022 9.40103 11.6773C8.97428 11.2523 8.63547 10.7474 8.40395 10.1915C8.17242 9.63552 8.05274 9.03938 8.05172 8.43714C8.05172 5.9272 10.0983 3.86133 12.6275 3.86133H26.355C27.6292 3.86133 28.7684 4.38262 29.5986 5.21283C30.6798 6.29404 31.2204 7.87723 30.8149 9.55695C30.2936 11.6421 28.2857 13.0129 26.1426 13.0129H25.8337L33.9813 31.6637C36.5878 37.6103 34.8887 42.4757 26.8956 42.4757H12.0869Z" stroke="#1A00FF" stroke-width="2.89608" stroke-linecap="round" stroke-linejoin="round"/>
<path d="M7.80078 25.3308C7.80078 25.3308 13.7088 25.0991 19.5009 27.0299C25.2931 28.9606 30.757 25.3115 30.757 25.3115" stroke="#1A00FF" stroke-width="2.89608" stroke-linecap="round" stroke-linejoin="round"/>
<rect x="0.96536" y="0.96536" width="37.0455" height="44.4066" rx="6.75752" stroke="#1A00FF" stroke-width="1.93072"/>
</g>
<defs>
<clipPath id="clip0_64_44">
<rect width="38.9762" height="46.3373" fill="white"/>
</clipPath>
</defs>
</svg>
