<svg width="42" height="42" viewBox="0 0 42 42" fill="none" xmlns="http://www.w3.org/2000/svg">
<g clip-path="url(#clip0_64_84)">
<rect x="1.40039" y="1" width="39.3926" height="39.4621" rx="16.8823" fill="#C1BAFF"/>
<path d="M30.955 12.6596C29.415 16.4996 25.555 21.7196 22.325 24.3096L20.355 25.8896C20.105 26.0696 19.855 26.2296 19.575 26.3396C19.575 26.1596 19.565 25.9596 19.535 25.7696C19.425 24.9296 19.045 24.1496 18.375 23.4796C17.695 22.7996 16.865 22.3996 16.015 22.2896C15.815 22.2796 15.615 22.2596 15.415 22.2796C15.525 21.9696 15.695 21.6796 15.905 21.4396L17.465 19.4696C20.045 16.2396 25.285 12.3596 29.115 10.8296C29.705 10.6096 30.275 10.7696 30.635 11.1396C31.015 11.5096 31.195 12.0796 30.955 12.6596Z" stroke="#1A00FF" stroke-width="1.5" stroke-linecap="round" stroke-linejoin="round"/>
<path d="M23.3848 23.1895C23.3848 20.5795 21.2648 18.4595 18.6548 18.4595M19.5748 26.3395C19.5748 27.4395 19.1548 28.4895 18.3648 29.2895C17.7548 29.8995 16.9248 30.3195 15.9348 30.4495L13.4748 30.7195C12.1348 30.8695 10.9848 29.7295 11.1448 28.3695L11.4148 25.9095C11.6548 23.7195 13.4848 22.3195 15.4248 22.2795C15.6248 22.2695 15.8348 22.2795 16.0248 22.2895C16.8748 22.3995 17.7048 22.7895 18.3848 23.4795C19.0548 24.1495 19.4348 24.9295 19.5448 25.7695C19.5548 25.9595 19.5748 26.1495 19.5748 26.3395Z" stroke="#1A00FF" stroke-width="1.5" stroke-linecap="round" stroke-linejoin="round"/>
<rect x="1.40039" y="1" width="39.3926" height="39.4621" rx="16.8823" stroke="#1A00FF" stroke-width="2"/>
</g>
<defs>
<clipPath id="clip0_64_84">
<rect width="41.3926" height="41.4621" fill="white" transform="translate(0.400391)"/>
</clipPath>
</defs>
</svg>
