<svg width="42" height="43" viewBox="0 0 42 43" fill="none" xmlns="http://www.w3.org/2000/svg">
<rect x="0.765035" y="0.765035" width="39.7818" height="41.3119" rx="19.8909" fill="#C1BAFF"/>
<path d="M24.9956 19.5389L33.6558 13.7399C34.5279 13.1585 34.7574 11.965 34.176 11.1082L31.3913 6.9617C30.8098 6.08957 29.6164 5.86006 28.7596 6.44148L20.0994 12.2404L24.9956 19.5389Z" stroke="#1A00FF" stroke-width="2.2951" stroke-linecap="round" stroke-linejoin="round"/>
<path d="M20.436 21.7272L13.566 36.7218M20.3595 21.7272L27.153 36.7218M20.6257 12.9752L13.3151 17.8714L17.232 23.7178L24.5427 18.8216L20.6257 12.9752ZM10.919 27.3884L16.9627 23.349L13.5354 18.2386L7.49161 22.278C6.78778 22.7523 6.60417 23.7009 7.07849 24.4048L8.80747 26.9753C9.26649 27.6638 10.2151 27.8474 10.919 27.3884Z" stroke="#1A00FF" stroke-width="2.2951" stroke-linecap="round" stroke-linejoin="round"/>
<rect x="0.765035" y="0.765035" width="39.7818" height="41.3119" rx="19.8909" stroke="#1A00FF" stroke-width="1.53007"/>
</svg>
